<svg xmlns="http://www.w3.org/2000/svg" xmlns:xlink="http://www.w3.org/1999/xlink" width="45" zoomAndPan="magnify" viewBox="0 0 34.079998 41.04" height="45" preserveAspectRatio="xMidYMid meet" version="1.0"><defs><clipPath id="ac011dabf1"><path d="M 2.253906 3.882812 L 11 3.882812 L 11 30.171875 L 2.253906 30.171875 Z M 2.253906 3.882812 " clip-rule="nonzero"/></clipPath><clipPath id="57c89f6e17"><path d="M 0.253906 0.882812 L 8.925781 0.882812 L 8.925781 27.171875 L 0.253906 27.171875 Z M 0.253906 0.882812 " clip-rule="nonzero"/></clipPath><clipPath id="b625683d18"><rect x="0" width="9" y="0" height="28"/></clipPath><clipPath id="5745342baf"><path d="M 10.933594 0.0703125 L 30.652344 0.0703125 L 30.652344 32.933594 L 10.933594 32.933594 Z M 10.933594 0.0703125 " clip-rule="nonzero"/></clipPath><clipPath id="8a337c1803"><path d="M 0.933594 0.0703125 L 20.605469 0.0703125 L 20.605469 32.933594 L 0.933594 32.933594 Z M 0.933594 0.0703125 " clip-rule="nonzero"/></clipPath><clipPath id="66866de90e"><rect x="0" width="21" y="0" height="33"/></clipPath></defs><g clip-path="url(#ac011dabf1)"><g transform="matrix(1, 0, 0, 1, 2, 3)"><g clip-path="url(#b625683d18)"><g clip-path="url(#57c89f6e17)"><path fill="#000000" d="M 2.011719 0.914062 L 7.257812 0.914062 C 8.179688 0.914062 8.925781 1.648438 8.925781 2.550781 L 8.925781 25.496094 C 8.925781 26.398438 8.179688 27.132812 7.257812 27.132812 L 2.011719 27.132812 C 1.089844 27.132812 0.339844 26.398438 0.339844 25.496094 L 0.339844 2.550781 C 0.339844 1.648438 1.089844 0.914062 2.011719 0.914062 Z M -10.578125 0.914062 L -5.332031 0.914062 C -4.410156 0.914062 -3.664062 1.648438 -3.664062 2.550781 L -3.664062 25.496094 C -3.664062 26.398438 -4.410156 27.132812 -5.332031 27.132812 L -10.578125 27.132812 C -11.5 27.132812 -12.25 26.398438 -12.25 25.496094 L -12.25 2.550781 C -12.25 1.648438 -11.5 0.914062 -10.578125 0.914062 Z M -10.578125 0.914062 " fill-opacity="1" fill-rule="nonzero"/></g></g></g></g><g clip-path="url(#5745342baf)"><g transform="matrix(1, 0, 0, 1, 10, 0.000000000000001804)"><g clip-path="url(#66866de90e)"><g clip-path="url(#8a337c1803)"><path fill="#000000" d="M 3.417969 14.78125 L 3.433594 14.769531 L 3.433594 12.332031 L 5.882812 12.332031 L 5.894531 12.320312 L 5.894531 9.878906 L 8.34375 9.878906 L 8.355469 9.867188 L 8.355469 7.429688 L 10.804688 7.429688 L 10.816406 7.417969 L 10.816406 4.976562 L 13.265625 4.976562 L 13.277344 4.964844 L 13.277344 2.527344 L 15.726562 2.527344 L 15.742188 2.515625 L 15.742188 0.078125 L 18.191406 0.078125 L 18.191406 2.523438 L 18.195312 2.527344 L 20.644531 2.527344 L 20.644531 31.941406 L 18.195312 31.941406 L 18.195312 31.929688 L 18.191406 31.941406 L 18.191406 34.390625 L 15.742188 34.390625 L 15.742188 31.941406 L 15.726562 31.929688 L 15.726562 31.941406 L 13.277344 31.941406 L 13.277344 29.507812 L 10.847656 29.507812 L 10.847656 27.074219 L 8.414062 27.074219 L 8.414062 24.640625 L 5.984375 24.640625 L 5.984375 22.207031 L 3.550781 22.207031 L 3.550781 19.753906 L 3.417969 19.511719 L 3.417969 19.683594 L 0.96875 19.683594 L 0.96875 14.78125 Z M 3.417969 14.78125 " fill-opacity="1" fill-rule="nonzero"/></g></g></g></g></svg>