<svg xmlns="http://www.w3.org/2000/svg" xmlns:xlink="http://www.w3.org/1999/xlink" width="45" zoomAndPan="magnify" viewBox="0 0 34.079998 41.04" height="45" preserveAspectRatio="xMidYMid meet" version="1.0"><defs><clipPath id="68d2bb67d1"><path d="M 21.710938 3.730469 L 29.746094 3.730469 L 29.746094 29.289062 L 21.710938 29.289062 Z M 21.710938 3.730469 " clip-rule="nonzero"/></clipPath><clipPath id="7a7ee14519"><path d="M 2.816406 0.0703125 L 21.804688 0.0703125 L 21.804688 32.933594 L 2.816406 32.933594 Z M 2.816406 0.0703125 " clip-rule="nonzero"/></clipPath></defs><g clip-path="url(#68d2bb67d1)"><path fill="#000000" d="M 28.386719 3.757812 L 23.320312 3.757812 C 22.433594 3.757812 21.710938 4.472656 21.710938 5.351562 L 21.710938 27.664062 C 21.710938 28.542969 22.433594 29.257812 23.320312 29.257812 L 28.386719 29.257812 C 29.277344 29.257812 30 28.542969 30 27.664062 L 30 5.351562 C 30 4.472656 29.277344 3.757812 28.386719 3.757812 Z M 40.542969 3.757812 L 35.476562 3.757812 C 34.589844 3.757812 33.867188 4.472656 33.867188 5.351562 L 33.867188 27.664062 C 33.867188 28.542969 34.589844 29.257812 35.476562 29.257812 L 40.542969 29.257812 C 41.433594 29.257812 42.15625 28.542969 42.15625 27.664062 L 42.15625 5.351562 C 42.15625 4.472656 41.433594 3.757812 40.542969 3.757812 Z M 40.542969 3.757812 " fill-opacity="1" fill-rule="nonzero"/></g><g clip-path="url(#7a7ee14519)"><path fill="#000000" d="M 19.363281 14.15625 L 19.351562 14.144531 L 19.351562 11.808594 L 16.992188 11.808594 L 16.980469 11.796875 L 16.980469 9.460938 L 14.625 9.460938 L 14.613281 9.449219 L 14.613281 7.113281 L 12.253906 7.113281 L 12.242188 7.101562 L 12.242188 4.765625 L 9.882812 4.765625 L 9.871094 4.753906 L 9.871094 2.417969 L 7.511719 2.417969 L 7.5 2.40625 L 7.5 0.0703125 L 5.140625 0.0703125 L 5.140625 2.414062 L 5.136719 2.417969 L 2.777344 2.417969 L 2.777344 30.585938 L 5.136719 30.585938 L 5.136719 30.578125 L 5.140625 30.585938 L 5.140625 32.933594 L 7.5 32.933594 L 7.5 30.585938 L 7.511719 30.574219 L 7.511719 30.585938 L 9.871094 30.585938 L 9.871094 28.257812 L 12.210938 28.257812 L 12.210938 25.925781 L 14.554688 25.925781 L 14.554688 23.597656 L 16.894531 23.597656 L 16.894531 21.265625 L 19.238281 21.265625 L 19.238281 18.917969 L 19.363281 18.6875 L 19.363281 18.851562 L 21.722656 18.851562 L 21.722656 14.15625 Z M 19.363281 14.15625 " fill-opacity="1" fill-rule="nonzero"/></g></svg>