<svg xmlns="http://www.w3.org/2000/svg" xmlns:xlink="http://www.w3.org/1999/xlink" width="45" zoomAndPan="magnify" viewBox="0 0 34.079998 41.04" height="45" preserveAspectRatio="xMidYMid meet" version="1.0"><defs><clipPath id="8b668c3644"><path d="M 29 9 L 32.863281 9 L 32.863281 24 L 29 24 Z M 29 9 " clip-rule="nonzero"/></clipPath><clipPath id="eccd79c2bd"><path d="M 8 0.0703125 L 24 0.0703125 L 24 4 L 8 4 Z M 8 0.0703125 " clip-rule="nonzero"/></clipPath><clipPath id="0eaa6edc44"><path d="M 8 29 L 24 29 L 24 32.933594 L 8 32.933594 Z M 8 29 " clip-rule="nonzero"/></clipPath></defs><path fill="#000000" d="M 0 9.035156 L 2.988281 9.035156 L 2.988281 23.972656 L 0 23.972656 Z M 0 9.035156 " fill-opacity="1" fill-rule="evenodd"/><g clip-path="url(#8b668c3644)"><path fill="#000000" d="M 29.875 9.035156 L 32.863281 9.035156 L 32.863281 23.972656 L 29.875 23.972656 Z M 29.875 9.035156 " fill-opacity="1" fill-rule="evenodd"/></g><path fill="#000000" d="M 2.988281 6.046875 L 5.976562 6.046875 L 5.976562 9.035156 L 2.988281 9.035156 Z M 2.988281 6.046875 " fill-opacity="1" fill-rule="evenodd"/><path fill="#000000" d="M 26.886719 23.972656 L 29.875 23.972656 L 29.875 26.960938 L 26.886719 26.960938 Z M 26.886719 23.972656 " fill-opacity="1" fill-rule="evenodd"/><path fill="#000000" d="M 5.976562 3.058594 L 8.960938 3.058594 L 8.960938 6.046875 L 5.976562 6.046875 Z M 5.976562 3.058594 " fill-opacity="1" fill-rule="evenodd"/><path fill="#000000" d="M 23.898438 26.960938 L 26.886719 26.960938 L 26.886719 29.949219 L 23.898438 29.949219 Z M 23.898438 26.960938 " fill-opacity="1" fill-rule="evenodd"/><g clip-path="url(#eccd79c2bd)"><path fill="#000000" d="M 8.960938 0.0703125 L 23.898438 0.0703125 L 23.898438 3.058594 L 8.960938 3.058594 Z M 8.960938 0.0703125 " fill-opacity="1" fill-rule="evenodd"/></g><g clip-path="url(#0eaa6edc44)"><path fill="#000000" d="M 8.960938 29.949219 L 23.898438 29.949219 L 23.898438 32.933594 L 8.960938 32.933594 Z M 8.960938 29.949219 " fill-opacity="1" fill-rule="evenodd"/></g><path fill="#000000" d="M 23.898438 3.058594 L 26.886719 3.058594 L 26.886719 6.046875 L 23.898438 6.046875 Z M 23.898438 3.058594 " fill-opacity="1" fill-rule="evenodd"/><path fill="#000000" d="M 5.976562 26.960938 L 8.960938 26.960938 L 8.960938 29.949219 L 5.976562 29.949219 Z M 5.976562 26.960938 " fill-opacity="1" fill-rule="evenodd"/><path fill="#000000" d="M 26.886719 6.046875 L 29.875 6.046875 L 29.875 9.035156 L 26.886719 9.035156 Z M 26.886719 6.046875 " fill-opacity="1" fill-rule="evenodd"/><path fill="#000000" d="M 11.949219 10.527344 L 14.9375 10.527344 L 14.9375 22.476562 L 11.949219 22.476562 Z M 11.949219 10.527344 " fill-opacity="1" fill-rule="evenodd"/><path fill="#000000" d="M 17.925781 10.527344 L 20.914062 10.527344 L 20.914062 22.476562 L 17.925781 22.476562 Z M 17.925781 10.527344 " fill-opacity="1" fill-rule="evenodd"/><path fill="#000000" d="M 2.988281 23.972656 L 5.976562 23.972656 L 5.976562 26.960938 L 2.988281 26.960938 Z M 2.988281 23.972656 " fill-opacity="1" fill-rule="evenodd"/></svg>