<svg xmlns="http://www.w3.org/2000/svg" xmlns:xlink="http://www.w3.org/1999/xlink" width="45" zoomAndPan="magnify" viewBox="0 0 34.079998 41.04" height="45" preserveAspectRatio="xMidYMid meet" version="1.0"><defs><clipPath id="f5fea5ee10"><path d="M 0 1.199219 L 32.863281 1.199219 L 32.863281 31.871094 L 0 31.871094 Z M 0 1.199219 " clip-rule="nonzero"/></clipPath></defs><g clip-path="url(#f5fea5ee10)"><path fill="#000000" d="M 30.808594 11.421875 L 30.808594 7.335938 L 28.753906 7.335938 L 28.753906 5.289062 L 26.699219 5.289062 L 26.699219 3.246094 L 22.59375 3.246094 L 22.59375 1.199219 L 10.269531 1.199219 L 10.269531 3.246094 L 6.164062 3.246094 L 6.164062 5.289062 L 4.109375 5.289062 L 4.109375 7.335938 L 2.054688 7.335938 L 2.054688 11.421875 L 0 11.421875 L 0 21.648438 L 2.054688 21.648438 L 2.054688 25.738281 L 4.109375 25.738281 L 4.109375 27.78125 L 6.164062 27.78125 L 6.164062 29.828125 L 10.269531 29.828125 L 10.269531 31.871094 L 22.59375 31.871094 L 22.59375 29.828125 L 26.699219 29.828125 L 26.699219 27.78125 L 28.753906 27.78125 L 28.753906 25.738281 L 30.808594 25.738281 L 30.808594 21.648438 L 32.863281 21.648438 L 32.863281 11.421875 Z M 30.808594 11.421875 " fill-opacity="1" fill-rule="nonzero"/></g><path fill="#ffffff" d="M 13.351562 9.378906 L 17.457031 9.378906 L 17.457031 11.421875 L 19.511719 11.421875 L 19.511719 13.46875 L 21.566406 13.46875 L 21.566406 15.511719 L 23.621094 15.511719 L 23.621094 17.558594 L 21.566406 17.558594 L 21.566406 19.601562 L 19.511719 19.601562 L 19.511719 21.648438 L 17.457031 21.648438 L 17.457031 23.691406 L 13.351562 23.691406 Z M 13.351562 9.378906 " fill-opacity="1" fill-rule="nonzero"/></svg>